HIERARCHY
ROOT Hips
{
	OFFSET 0.000000 0.000000 0.000000
	CHANNELS 6 Xposition Yposition Zposition Zrotation Yrotation Xrotation 
	JOINT LHipJoint
	{
		OFFSET 0.000000 0.000000 0.000000
		CHANNELS 3 Zrotation Yrotation Xrotation
		JOINT LeftUpLeg
		{
			OFFSET 1.363060 -1.794630 0.839290
			CHANNELS 3 Zrotation Yrotation Xrotation
			JOINT LeftLeg
			{
				OFFSET 2.448110 -6.726130 0.000000
				CHANNELS 3 Zrotation Yrotation Xrotation
				JOINT LeftFoot
				{
					OFFSET 2.562200 -7.039590 0.000000
					CHANNELS 3 Zrotation Yrotation Xrotation
					JOINT LeftToeBase
					{
						OFFSET 0.157640 -0.433110 2.322550
						CHANNELS 3 Zrotation Yrotation Xrotation
						End Site
						{
							OFFSET 0.000000 0.000000 0.000000
						}
					}
				}
			}
		}
	}
	JOINT RHipJoint
	{
		OFFSET 0.000000 0.000000 0.000000
		CHANNELS 3 Zrotation Yrotation Xrotation
		JOINT RightUpLeg
		{
			OFFSET -1.305520 -1.794630 0.839290
			CHANNELS 3 Zrotation Yrotation Xrotation
			JOINT RightLeg
			{
				OFFSET -2.542530 -6.985550 0.000000
				CHANNELS 3 Zrotation Yrotation Xrotation
				JOINT RightFoot
				{
					OFFSET -2.568260 -7.056230 0.000000
					CHANNELS 3 Zrotation Yrotation Xrotation
					JOINT RightToeBase
					{
						OFFSET -0.164730 -0.452590 2.363150
						CHANNELS 3 Zrotation Yrotation Xrotation
						End Site
						{
							OFFSET 0.000000 0.000000 0.000000
						}
					}
				}
			}
		}
	}
	JOINT LowerBack
	{
		OFFSET 0.000000 0.000000 0.000000
		CHANNELS 3 Zrotation Yrotation Xrotation
		JOINT Spine
		{
			OFFSET 0.028270 2.035590 -0.193380
			CHANNELS 3 Zrotation Yrotation Xrotation
			JOINT Spine1
			{
				OFFSET 0.056720 2.048850 -0.042750
				CHANNELS 3 Zrotation Yrotation Xrotation
				JOINT Neck
				{
					OFFSET 0.000000 0.000000 0.000000
					CHANNELS 3 Zrotation Yrotation Xrotation
					JOINT Neck1
					{
						OFFSET -0.054170 1.746240 0.172020
						CHANNELS 3 Zrotation Yrotation Xrotation
						JOINT Head
						{
							OFFSET 0.104070 1.761360 -0.123970
							CHANNELS 3 Zrotation Yrotation Xrotation
							End Site
							{
								OFFSET 0.000000 0.000000 0.000000
							}
						}
					}
				}
				JOINT LeftShoulder
				{
					OFFSET 0.000000 0.000000 0.000000
					CHANNELS 3 Zrotation Yrotation Xrotation
					JOINT LeftArm
					{
						OFFSET 3.362410 1.200890 -0.311210
						CHANNELS 3 Zrotation Yrotation Xrotation
						JOINT LeftForeArm
						{
							OFFSET 4.983000 -0.000000 -0.000000
							CHANNELS 3 Zrotation Yrotation Xrotation
							JOINT LeftHand
							{
								OFFSET 3.483560 -0.000000 -0.000000
								CHANNELS 3 Zrotation Yrotation Xrotation
								JOINT LeftFingerBase
								{
									OFFSET 0.000000 0.000000 0.000000
									CHANNELS 3 Zrotation Yrotation Xrotation
									JOINT LeftHandIndex1
									{
										OFFSET 0.715260 -0.000000 -0.000000
										CHANNELS 3 Zrotation Yrotation Xrotation
										End Site
										{
											OFFSET 0.000000 0.000000 0.000000
										}
									}
								}
								JOINT LThumb
								{
									OFFSET 0.000000 0.000000 0.000000
									CHANNELS 3 Zrotation Yrotation Xrotation
									End Site
									{
										OFFSET 0.000000 0.000000 0.000000
									}
								}
							}
						}
					}
				}
				JOINT RightShoulder
				{
					OFFSET 0.000000 0.000000 0.000000
					CHANNELS 3 Zrotation Yrotation Xrotation
					JOINT RightArm
					{
						OFFSET -3.136600 1.374050 -0.404650
						CHANNELS 3 Zrotation Yrotation Xrotation
						JOINT RightForeArm
						{
							OFFSET -5.241900 -0.000000 -0.000000
							CHANNELS 3 Zrotation Yrotation Xrotation
							JOINT RightHand
							{
								OFFSET -3.444170 -0.000000 -0.000000
								CHANNELS 3 Zrotation Yrotation Xrotation
								JOINT RightFingerBase
								{
									OFFSET 0.000000 0.000000 0.000000
									CHANNELS 3 Zrotation Yrotation Xrotation
									JOINT RightHandIndex1
									{
										OFFSET -0.622530 -0.000000 -0.000000
										CHANNELS 3 Zrotation Yrotation Xrotation
										End Site
										{
											OFFSET 0.000000 0.000000 0.000000
										}
									}
								}
								JOINT RThumb
								{
									OFFSET 0.000000 0.000000 0.000000
									CHANNELS 3 Zrotation Yrotation Xrotation
									End Site
									{
										OFFSET 0.000000 0.000000 0.000000
									}
								}
							}
						}
					}
				}
			}
		}
	}
}
MOTION
Frames: 11
Frame Time: 0.008333
-5.702271 16.919809 0.925474 -29.918680 81.883992 -12.510550 -9.119337 -0.025657 -1.832818 -18.495503 11.819043 -42.443447 -3.312545 0.146329 14.487831 1.357902 7.551526 -1.260310 1.282700 -0.000000 -2.134700 10.420472 -2.060500 -2.653652 7.580328 -4.939309 -12.484525 1.648868 -2.689621 38.298418 1.172663 13.494436 0.500940 1.444700 -0.000000 -70.229500 -6.928986 1.974931 5.424704 -2.918887 2.286303 -2.180839 -8.768289 2.184625 -0.291625 10.239471 7.591828 5.963928 -5.332463 -0.457285 3.104507 0.000000 0.000000 0.000000 -5.361770 -1.259610 1.778818 -61.625186 -12.671381 2.788806 -3.454778 -24.599656 -0.003962 5.400166 -0.567076 -0.029549 -0.076415 0.059665 0.000000 0.000000 0.000000 0.000000 0.000000 0.000000 0.000000 22.815357 6.895575 -1.132673 75.693847 25.872959 9.907552 2.335654 26.971228 0.005820 3.181456 10.083941 0.286988 -0.018102 -0.154252 0.000000 0.000000 0.000000 0.000000 0.000000 0.000000 0.000000 
-5.595482 16.946867 0.892283 -29.097565 81.787162 -11.702211 -9.146507 -0.013136 -1.886684 -18.502118 11.846822 -41.825431 -3.301418 0.110768 14.421642 1.413724 7.786066 -1.838513 1.220200 0.000000 -2.280899 10.543428 -2.022063 -2.674183 7.178803 -4.940174 -13.649402 1.342449 -2.882131 40.539416 1.126422 13.777709 2.747035 1.995300 -0.000000 -71.642000 -7.230825 1.930948 5.496122 -2.981152 2.249907 -2.167226 -8.773959 2.145934 -0.309602 10.126038 7.707422 6.031968 -5.309772 -0.456400 3.118557 0.000000 0.000000 0.000000 -5.313497 -1.677246 1.847714 -61.227818 -13.254357 2.947987 -3.547336 -22.907956 -0.004355 4.983766 -0.114273 -0.007362 -0.076629 0.061939 0.000000 0.000000 0.000000 0.000000 0.000000 0.000000 0.000000 22.607667 6.931470 -1.125971 76.094715 25.325429 8.969592 2.329930 26.083906 0.005625 3.054987 9.992737 0.272985 -0.016393 -0.150743 0.000000 0.000000 0.000000 0.000000 0.000000 0.000000 0.000000 
-5.491964 16.973700 0.855448 -28.789103 81.675897 -11.437335 -9.171917 -0.006578 -1.962868 -18.473832 11.963500 -41.154592 -3.292693 0.072480 14.275906 1.451340 7.932064 -2.347407 1.150100 -0.000000 -2.442200 10.658859 -1.967491 -2.697823 6.852252 -4.900754 -14.747680 1.049402 -3.049277 42.684283 1.055590 13.972890 4.936597 2.556600 0.000000 -72.558500 -7.425143 1.890365 5.605586 -3.020607 2.213130 -2.143630 -8.775205 2.107423 -0.322193 9.959966 7.832796 6.105601 -5.286619 -0.455355 3.133919 0.000000 0.000000 0.000000 -5.296006 -2.099766 1.917856 -60.844609 -13.869743 3.163547 -3.641944 -21.219575 -0.004703 4.473751 0.369696 0.012530 -0.077262 0.064881 0.000000 0.000000 0.000000 0.000000 0.000000 0.000000 0.000000 22.341687 6.974518 -1.113296 76.435789 24.803239 8.081138 2.333794 25.192739 0.005564 2.969666 9.855417 0.261482 -0.014427 -0.146550 0.000000 0.000000 0.000000 0.000000 0.000000 0.000000 0.000000 
-5.391296 16.999839 0.815307 -28.947703 81.554285 -11.669414 -9.196527 -0.002802 -2.057312 -18.410648 12.163076 -40.454265 -3.286422 0.036565 14.082036 1.467371 7.975241 -2.764533 1.077400 0.000000 -2.598000 10.765460 -1.898566 -2.725974 6.598769 -4.836862 -15.773167 0.776520 -3.192091 44.722989 0.964442 14.031065 6.975674 3.080400 0.000000 -73.022600 -7.520815 1.851640 5.747803 -3.039554 2.174804 -2.110940 -8.774852 2.067950 -0.327841 9.752874 7.965710 6.183185 -5.265677 -0.454258 3.150030 0.000000 0.000000 0.000000 -5.300402 -2.514283 1.988189 -60.478056 -14.519931 3.434416 -3.737779 -19.552659 -0.004983 3.890841 0.868774 0.028125 -0.078393 0.068437 0.000000 0.000000 0.000000 0.000000 0.000000 0.000000 0.000000 22.041005 7.020881 -1.095117 76.706748 24.307055 7.261697 2.348807 24.309884 0.005652 2.951296 9.662279 0.254579 -0.012400 -0.141578 -0.000000 0.000000 0.000000 0.000000 0.000000 0.000000 0.000000 
-5.292932 17.025020 0.772450 -29.497757 81.431302 -12.319208 -9.220954 0.000527 -2.163960 -18.315656 12.425602 -39.742094 -3.282013 0.005842 13.864591 1.461904 7.917547 -3.081325 1.006900 0.000000 -2.738800 10.862824 -1.818163 -2.760708 6.410217 -4.767865 -16.727133 0.527517 -3.313818 46.652351 0.857907 13.897609 8.782904 3.513300 0.000000 -73.111000 -7.534583 1.811777 5.916123 -3.041861 2.132675 -2.070444 -8.775368 2.025237 -0.325986 9.519142 8.101294 6.263608 -5.249480 -0.453222 3.166472 0.000000 0.000000 0.000000 -5.314225 -2.917245 2.057790 -60.129552 -15.197924 3.754202 -3.833243 -17.930539 -0.005188 3.261928 1.368166 0.038225 -0.080029 0.072514 0.000000 0.000000 0.000000 0.000000 0.000000 0.000000 0.000000 21.731693 7.062881 -1.071651 76.899895 23.837325 6.525737 2.375559 23.445075 0.005880 3.018904 9.405395 0.253175 -0.010487 -0.135753 -0.000000 0.000000 0.000000 0.000000 0.000000 0.000000 0.000000 
-5.196439 17.049126 0.727549 -30.363775 81.318273 -13.306486 -9.245153 0.005163 -2.275713 -18.193143 12.723786 -39.029229 -3.278323 -0.018799 13.641926 1.438059 7.774158 -3.303404 0.941900 -0.000000 -2.864300 10.951432 -1.729492 -2.803905 6.276353 -4.713197 -17.616102 0.303092 -3.418696 48.473421 0.740147 13.519750 10.297429 3.806000 -0.000001 -72.908300 -7.484992 1.767651 6.102797 -3.031624 2.084420 -2.024675 -8.778135 1.976708 -0.320304 9.274067 8.238145 6.350398 -5.239665 -0.452374 3.184219 0.000000 0.000000 0.000000 -5.321754 -3.327824 2.126575 -59.801564 -15.867769 4.098598 -3.925142 -16.392590 -0.005321 2.617134 1.859318 0.042427 -0.082046 0.076958 0.000000 0.000000 0.000000 0.000000 0.000000 0.000000 0.000000 21.436588 7.096121 -1.041561 77.010244 23.386513 5.870532 2.413520 22.610477 0.006215 3.186713 9.076487 0.257670 -0.008870 -0.129055 -0.000000 0.000000 0.000000 0.000000 0.000000 0.000000 0.000000 
-5.101362 17.072133 0.681261 -31.510649 81.224427 -14.587906 -9.267528 0.011960 -2.385268 -18.044710 13.027159 -38.326975 -3.273851 -0.037636 13.429355 1.400910 7.567267 -3.449663 0.883200 0.000000 -2.980200 11.032702 -1.635005 -2.856875 6.191499 -4.687180 -18.450550 0.101828 -3.510671 50.188074 0.613592 12.853805 11.481776 3.920700 0.000000 -72.483899 -7.385515 1.715735 6.300629 -3.012129 2.027229 -1.972612 -8.786415 1.920040 -0.301471 9.030989 8.363730 6.431782 -5.237748 -0.451659 3.199884 0.000000 0.000000 0.000000 -5.321831 -3.693872 2.191736 -59.487507 -16.595396 4.510443 -4.014394 -14.914086 -0.005400 1.995454 2.317743 0.041033 -0.084548 0.081785 0.000000 0.000000 0.000000 0.000000 0.000000 0.000000 0.000000 21.176515 7.106354 -1.010202 77.038800 22.967291 5.307730 2.462171 21.806699 0.006607 3.451323 8.683063 0.266663 -0.007553 -0.121472 -0.000000 0.000000 0.000000 0.000000 0.000000 0.000000 0.000000 
-5.007425 17.094120 0.634277 -32.898090 81.159747 -16.117142 -9.286629 0.021622 -2.485672 -17.874628 13.304908 -37.636712 -3.267027 -0.052530 13.232115 1.356749 7.326064 -3.544604 0.830500 0.000000 -3.097200 11.108118 -1.536538 -2.920130 6.146078 -4.701600 -19.240879 -0.078753 -3.593137 51.798187 0.478657 11.876367 12.322123 3.839000 -0.000000 -71.879600 -7.252402 1.654123 6.501653 -2.986831 1.959827 -1.917822 -8.800082 1.853509 -0.277294 8.803076 8.480507 6.515286 -5.243528 -0.451171 3.215738 0.000000 0.000000 0.000000 -5.298714 -4.054984 2.253786 -59.190441 -17.320350 4.954132 -4.096161 -13.546141 -0.005457 1.429767 2.741216 0.035540 -0.087255 0.086763 0.000000 0.000000 0.000000 0.000000 0.000000 0.000000 0.000000 20.963804 7.094278 -0.974920 76.986452 22.563052 4.810790 2.519142 21.047083 0.006992 3.808847 8.225602 0.278555 -0.006629 -0.113132 -0.000000 0.000000 0.000000 0.000000 0.000000 0.000000 0.000000 
-4.914332 17.115169 0.587211 -34.513588 81.131188 -17.874920 -9.300529 0.034246 -2.571441 -17.686557 13.530429 -36.957549 -3.256483 -0.065898 13.050516 1.311634 7.078918 -3.615587 0.783000 -0.000000 -3.227100 11.179201 -1.435045 -2.993243 6.132971 -4.761452 -19.996896 -0.240951 -3.668477 53.302716 0.334123 10.587654 12.825178 3.564601 0.000000 -71.104900 -7.097088 1.581532 6.699366 -2.958200 1.881410 -1.861823 -8.819579 1.776259 -0.248806 8.600210 8.585953 6.600498 -5.256355 -0.450894 3.231812 0.000000 0.000000 0.000000 -5.247117 -4.412807 2.311934 -58.907772 -18.037967 5.429523 -4.168147 -12.304627 -0.005533 0.953624 3.120398 0.028047 -0.090016 0.091756 0.000000 0.000000 0.000000 0.000000 0.000000 0.000000 0.000000 20.805814 7.057179 -0.936606 76.858136 22.167081 4.360622 2.581878 20.339277 0.007307 4.241425 7.715622 0.290746 -0.006062 -0.104210 -0.000000 0.000000 0.000000 0.000000 0.000000 0.000000 0.000000 
-4.821958 17.135429 0.540522 -36.362129 81.142309 -19.860011 -9.307362 0.049387 -2.639275 -17.484175 13.685055 -36.286138 -3.241333 -0.080330 12.879978 1.270496 6.849770 -3.687673 0.739400 -0.000000 -3.380400 11.247307 -1.330919 -3.074890 6.146351 -4.865592 -20.726857 -0.386299 -3.738245 54.698055 0.177887 9.013792 13.015253 3.121600 0.000000 -70.142900 -6.928064 1.497481 6.889091 -2.928125 1.791879 -1.804659 -8.845759 1.688417 -0.212739 8.428764 8.672084 6.681323 -5.275575 -0.450758 3.246522 0.000000 0.000000 0.000000 -5.169475 -4.746253 2.364537 -58.633580 -18.774689 5.961451 -4.229606 -11.188082 -0.005668 0.595198 3.443795 0.020554 -0.092760 0.096664 0.000000 0.000000 0.000000 0.000000 0.000000 0.000000 0.000000 20.706464 6.988086 -0.898209 76.660997 21.781174 3.947172 2.647633 19.686316 0.007498 4.719105 7.173193 0.300534 -0.005708 -0.094939 -0.000000 0.000000 0.000000 0.000000 0.000000 0.000000 0.000000 
-4.730167 17.154942 0.494528 -38.467575 81.192803 -22.091299 -9.305657 0.066174 -2.687904 -17.271314 13.759136 -35.619046 -3.221277 -0.098091 12.714294 1.236458 6.654172 -3.780316 0.698500 -0.000000 -3.563800 11.313506 -1.224708 -3.162577 6.181582 -5.007755 -21.436871 -0.515288 -3.803360 55.977511 0.007988 7.205034 12.931642 2.550700 0.000000 -68.965600 -6.749978 1.402520 7.067146 -2.897517 1.692020 -1.746810 -8.878592 1.590879 -0.168197 8.291652 8.734813 6.754339 -5.299720 -0.450688 3.259099 0.000000 0.000000 0.000000 -5.070897 -5.044600 2.410629 -58.363051 -19.544189 6.569072 -4.279665 -10.201306 -0.005903 0.374272 3.701884 0.015259 -0.095406 0.101360 0.000000 0.000000 0.000000 0.000000 0.000000 0.000000 0.000000 20.662525 6.885129 -0.861843 76.403635 21.401230 3.554199 2.713307 19.093113 0.007532 5.208037 6.622803 0.306021 -0.005412 -0.085627 -0.000000 0.000000 0.000000 0.000000 0.000000 0.000000 0.000000 
